<?xml version="1.0" encoding="utf-8" standalone="no"?>
<!DOCTYPE svg
  PUBLIC '-//W3C//DTD SVG 1.1//EN'
  'http://www.w3.org/Graphics/SVG/1.1/DTD/svg11.dtd'>
<?xml-stylesheet type="text/css" href="svg-stylesheet.css" ?>
<svg height="500" version="1.1" width="1000" xmlns="http://www.w3.org/2000/svg" xmlns:xlink="http://www.w3.org/1999/xlink">
  <g transform="translate(20 20) scale(2)">
    <rect class="arrayKeyItem selected" height="50" width="50" x="0" y="0"/>
    <g transform="translate(0 0)">
      <text class="note" text-anchor="middle" x="25" y="28">key1</text>
    </g>
    <rect class="arrayKeyItem" height="50" width="50" x="50" y="0"/>
    <rect class="arrayKeyItem" height="50" width="50" x="100" y="0"/>
    <g transform="translate(150 0)">
      <rect class="arrayKeyItem selected" height="50" width="50" x="0" y="0"/>
      <text class="note" text-anchor="middle" x="25" y="28">key2</text>
    </g>
    <g transform="translate(150 60)">
      <rect class="arrayKeyItem selected" height="50" width="50" x="0" y="0"/>
      <text class="note" text-anchor="middle" x="25" y="28">key3</text>
    </g>
    <g transform="translate(150 120)">
      <rect class="arrayKeyItem selected" height="50" width="50" x="0" y="0"/>
      <text class="note" text-anchor="middle" x="25" y="28">key4</text>
    </g>
    <rect class="arrayKeyItem" height="50" width="50" x="200" y="0"/>
    <rect class="arrayKeyItem" height="50" width="50" x="250" y="0"/>
    <rect class="arrayKeyItem" height="50" width="50" x="300" y="0"/>
    <g transform="translate(240 90)">
      <text class="comment" text-anchor="end" x="70" y="0">hashCode(</text>
      <g transform="translate(80 -30)">
        <rect class="arrayKeyItem selected" height="50" width="50" x="0" y="0"/>
        <text class="note" text-anchor="middle" x="25" y="28">key2</text>
      </g>
      <text class="comment" x="140" y="0">) = 17</text>
    </g>
    <g transform="translate(240 150)">
      <text class="comment" text-anchor="end" x="70" y="0">hashCode(</text>
      <g transform="translate(80 -30)">
        <rect class="arrayKeyItem selected" height="50" width="50" x="0" y="0"/>
        <text class="note" text-anchor="middle" x="25" y="28">key3</text>
      </g>
      <text class="comment" x="140" y="0">) = 17</text>
    </g>
    <g transform="translate(240 210)">
      <text class="comment" text-anchor="end" x="70" y="0">hashCode(</text>
      <g transform="translate(80 -30)">
        <rect class="arrayKeyItem selected" height="50" width="50" x="0" y="0"/>
        <text class="note" text-anchor="middle" x="25" y="28">key4</text>
      </g>
      <text class="comment" x="140" y="0">) = 17</text>
    </g>
  </g>
</svg>
