<?xml version="1.0" encoding="utf-8" standalone="no"?>
<!DOCTYPE svg
  PUBLIC '-//W3C//DTD SVG 1.1//EN'
  'http://www.w3.org/Graphics/SVG/1.1/DTD/svg11.dtd'>
<?xml-stylesheet type="text/css" href="../svg-stylesheet.css" ?>
<svg height="450" version="1.1" width="1000" xmlns="http://www.w3.org/2000/svg" xmlns:xlink="http://www.w3.org/1999/xlink">
  <defs>
    <style type="text/css"><![CDATA[

rect.monitor {
    fill:#F44;
    stroke:black;
    stroke-width:1;
}

.line {
  fill:none;
  stroke:black;
  stroke-width:2;
}
    ]]></style>
  </defs>
  <g transform="translate(200 0) scale(2)">
    <g transform="translate(20 30)">
      <text class="note" text-anchor="middle" x="30" y="-10">Thread1</text>
      <path class="line" d="M30,0 30,200"/>
    </g>
    <g transform="translate(80 30)">
      <text class="note" text-anchor="middle" x="30" y="-10">Thread2</text>
      <path class="line" d="M30,0 30,200"/>
      <rect class="monitor" height="40" width="10" x="25" y="10"/>
      <rect class="monitor" height="10" width="10" x="25" y="60"/>
      <rect class="monitor" height="10" width="10" x="25" y="80"/>
      <rect class="monitor" height="40" width="10" x="25" y="100"/>
      <rect class="monitor" height="40" width="10" x="25" y="180"/>
    </g>
    <g transform="translate(140 30)">
      <text class="note" text-anchor="middle" x="30" y="-10">Thread3</text>
      <path class="line" d="M30,0 30,200"/>
      <rect class="monitor" height="20" width="10" x="25" y="160"/>
    </g>
    <g transform="translate(200 30)">
      <text class="note" text-anchor="middle" x="30" y="-10">Thread4</text>
      <path class="line" d="M30,0 30,200"/>
    </g>
    <g transform="translate(280 60)">
      <text class="note" x="15" y="10">object monitor</text>
      <rect class="monitor" height="10" width="10" x="0" y="0"/>
    </g>
  </g>
</svg>
