<?xml version="1.0" encoding="utf-8" standalone="no"?>
<!DOCTYPE svg
  PUBLIC '-//W3C//DTD SVG 1.1//EN'
  'http://www.w3.org/Graphics/SVG/1.1/DTD/svg11.dtd'>
<?xml-stylesheet type="text/css" href="../svg-stylesheet.css" ?>
<svg height="450" version="1.1" width="1000" xmlns="http://www.w3.org/2000/svg" xmlns:xlink="http://www.w3.org/1999/xlink">
  <defs>
    <style type="text/css"><![CDATA[

rect.monitor {
    fill:#F44;
    stroke:black;
    stroke-width:1;
}

.line {
  fill:none;
  stroke:black;
  stroke-width:2;
}
    ]]></style>
  </defs>
  <g transform="translate(20 0) scale(3)">
    <g transform="translate(20 30)">
      <text class="note" text-anchor="end" x="25" y="3">Thread1</text>
      <path class="line" d="M30,0 300,0"/>
    </g>
    <g transform="translate(20 50)">
      <text class="note" text-anchor="end" x="25" y="3">Thread2</text>
      <path class="line" d="M30,0 300,0"/>
      <g transform="translate(50 -5)">
        <rect class="monitor" height="10" width="40" x="10" y="0"/>
        <rect class="monitor" height="10" width="10" x="60" y="0"/>
        <rect class="monitor" height="10" width="10" x="80" y="0"/>
        <rect class="monitor" height="10" width="40" x="100" y="0"/>
        <rect class="monitor" height="10" width="40" x="180" y="0"/>
      </g>
    </g>
    <g transform="translate(20 70)">
      <text class="note" text-anchor="end" x="25" y="3">Thread3</text>
      <path class="line" d="M30,0 300,0"/>
      <g transform="translate(50 -5)">
        <rect class="monitor" height="10" width="20" x="150" y="0"/>
      </g>
    </g>
    <g transform="translate(20 90)">
      <text class="note" text-anchor="end" x="25" y="3">Thread4</text>
      <path class="line" d="M30,0 300,0"/>
    </g>
    <g transform="translate(10 110)">
      <text class="note" x="15" y="10">object monitor</text>
      <rect class="monitor" height="10" width="10" x="0" y="0"/>
    </g>
  </g>
</svg>
