<?xml version="1.0" encoding="utf-8" standalone="no"?>
<!DOCTYPE svg
  PUBLIC '-//W3C//DTD SVG 1.1//EN'
  'http://www.w3.org/Graphics/SVG/1.1/DTD/svg11.dtd'>
<?xml-stylesheet type="text/css" href="../svg-stylesheet.css" ?>
<svg height="400" version="1.1" width="1000" xmlns="http://www.w3.org/2000/svg" xmlns:xlink="http://www.w3.org/1999/xlink">
  <defs>
    <style type="text/css"><![CDATA[

rect {
  stroke:black;
  stroke-width:1;
  fill: none;
}

rect.eden {
  opacity:0.5;
  fill:red;
}

rect.survivor{
  opacity:0.5;
  fill:orange;
}

rect.old {
  opacity:0.5;
  fill:blue;
}

rect.meta {
  opacity:0.5;
  fill:green;
}

.line {
  fill:none;
  stroke:black;
  stroke-width:1.2;
}

.dim {
  fill:none;
  stroke:black;
  stroke-width:1.2;
  marker-start:url(#TriangleInL);
  marker-end:url(#TriangleOutL);
}
    ]]></style>
  </defs>
  <marker id="TriangleOutL" orient="auto" refX="0.0" refY="0.0" style="overflow:visible">
    <path d="M 5.77,0.0 L -2.88,5.0 L -2.88,-5.0 L 5.77,0.0 z " id="path4051" style="fill-rule:evenodd;stroke:#000000;stroke-width:1.0pt;marker-start:none" transform="scale(0.6)"/>
  </marker>
  <marker id="TriangleInL" orient="auto" refX="0.0" refY="0.0" style="overflow:visible">
    <g transform="rotate(180)">
      <path d="M 5.77,0.0 L -2.88,5.0 L -2.88,-5.0 L 5.77,0.0 z " id="path4051" style="fill-rule:evenodd;stroke:#000000;stroke-width:1.0pt;marker-start:none" transform="scale(0.6)"/>
    </g>
  </marker>
  <g transform="translate(90 80) scale(2)">

    <path class="dim" d="M5,130 175,130"/>
    <text class="bigcomment" text-anchor="middle" x="90" y="120">Young Gen</text>
    <g transform="translate(0 0)">
      <rect class="eden" height="100" width="60" x="0" y="0"/>
      <rect class="rect" height="100" width="60" x="0" y="0"/>
      <path class="line" d="M0,0 0,135"/>
      <text class="bigcomment" text-anchor="middle" x="30" y="55">Eden</text>
    </g>
    <text class="bigcomment" text-anchor="middle" x="120" y="-20">Survivor space</text>
    <path class="dim" d="M65,-10 175,-10"/>
    <g transform="translate(60 0)">
      <rect class="survivor" height="100" width="60" x="0" y="0"/>
      <rect class="rect" height="100" width="60" x="0" y="0"/>
      <path class="line" d="M0,100 0,-20"/>
      <text class="bigcomment" text-anchor="middle" x="30" y="55">S0</text>
    </g>
    <g transform="translate(120 0)">
      <rect class="survivor" height="100" width="60" x="0" y="0"/>
      <rect class="rect" height="100" width="60" x="0" y="0"/>
      <path class="line" d="M60,130 60,-20"/>
      <text class="bigcomment" text-anchor="middle" x="30" y="55">S1</text>
    </g>
    <g transform="translate(180 0)">
      <rect class="old" height="100" width="150" x="0" y="0"/>
      <rect class="rect" height="100" width="150" x="0" y="0"/>
      <path class="line" d="M150,130 150,0"/>
      <text class="bigcomment" text-anchor="middle" x="75" y="55">Tenured</text>
      <text class="bigcomment" text-anchor="middle" x="75" y="120">Old Gen</text>
      <path class="dim" d="M5,130 145,130"/>
    </g>
    <g transform="translate(330 0)">
      <rect class="meta" height="100" width="60" x="0" y="0"/>
      <rect class="rect" height="100" width="60" x="0" y="0"/>
      <path class="line" d="M0,0 0,135"/>
      <text class="bigcomment" text-anchor="middle" x="30" y="55">Meta</text>
    </g>
  </g>
</svg>
