<?xml version="1.0" encoding="utf-8" standalone="no"?>
<!DOCTYPE svg
  PUBLIC '-//W3C//DTD SVG 1.1//EN'
  'http://www.w3.org/Graphics/SVG/1.1/DTD/svg11.dtd'>
<?xml-stylesheet type="text/css" href="svg-stylesheet.css" ?>
<svg height="550" version="1.1" width="1000" xmlns="http://www.w3.org/2000/svg" xmlns:xlink="http://www.w3.org/1999/xlink">
  <defs>
    <style type="text/css"><![CDATA[

rect.arrayKeyItem, rect.arrayValueItem {
  fill:white;
  stroke:black;
  stroke-width:1;
  opacity:1;
}

rect.arrayKeyItem.selected {
    fill:#00B7EB;
}

rect.arrayValueItem.selected {
    fill:#6BF76B;
}

rect.focused {
  stroke-width:3;
}

.code, .codeX {
    font-size:16px;
    fill:#000000;
    font-family:PT Mono;
}

.note {
    font-size:10px;
    fill:#000000;
    font-family:PT Serif;
}

.comment {
    font-size:14px;
    fill:#000000;
    font-family:PT Serif;
}

.bigcomment {
    font-size:18px;
    fill:#000000;
    font-family:PT Serif;
}

.link {
  fill:none;
  stroke:black;
  stroke-width:1.2;
  marker-end:url(#TriangleOutL);
}

.code1, .code2, .code3, .code4 {
   opacity:0.8;
}

.code1 {
  fill:red;
}

.code2 {
  fill:green;
}

.code3 {
  fill:blue;
}

.code4 {
  fill:orange;
}

.header.code1 {
  /*fill:red;*/
  fill: #0F0;
}

.header.code2 {
  /*fill:green;*/
  fill: #0C0;
}

.header.code3 {
  /*fill:blue;*/
  fill: #0A0;
}

.header.code4 {
  /*fill:orange;*/
  fill: #080;
}


rect.unused, rect.used {
  stroke:black;
  stroke-width:1;
  opacity:1;
  fill:#ddd;
}

rect.log {
  stroke:none;
  stroke-width:0;
  opacity:0.5;
  fill:#ddf;
}

path.log {
  fill: none;
  stroke: #88F;
  stroke-width:2;
}

rect.t1 {
    fill:#30FB30;
}

rect.t2 {
    fill:#3030FB;
}

rect.t3 {
    fill:#FB3030;
}

/* */
.link {
  fill:none;
  stroke:black;
  stroke-width:1.2;
  marker-end:url(#TriangleOutL);
}
    ]]></style>
  </defs>
  <marker id="TriangleOutL" orient="auto" refX="0.0" refY="0.0" style="overflow:visible">
    <path d="M 6,0.0 L -2,3.0 L -2,-3.0 L 6,0.0 z " style="fill-rule:evenodd;stroke:#000000;stroke-width:1.0pt;marker-start:none" transform="scale(0.6)"/>
  </marker>
  <g transform="translate(20 20) scale(2.25)">
    <g transform="translate(30 0)">
      <rect class="arrayKeyItem" height="50" width="50" x="50" y="0"/>
      <rect class="arrayKeyItem" height="50" width="50" x="100" y="0"/>
      <rect class="arrayKeyItem" height="50" width="50" x="150" y="0"/>
      <g transform="translate(0 0)">
        <rect class="arrayKeyItem selected" height="50" width="50" x="0" y="0"/>
        <text class="note" text-anchor="middle" x="25" y="28">Theo</text>
      </g>
      <rect class="arrayKeyItem" height="50" width="50" x="50" y="0"/>
      <rect class="arrayKeyItem" height="50" width="50" x="100" y="0"/>
      <g transform="translate(250 0)">
        <rect class="arrayKeyItem selected" height="50" width="50" x="0" y="0"/>
        <text class="note" text-anchor="middle" x="25" y="28">Peter</text>
      </g>
      <g transform="translate(100 0)">
        <rect class="arrayKeyItem selected" height="50" width="50" x="0" y="0"/>
        <text class="note" text-anchor="middle" x="25" y="28">Alex</text>
        <path class="link" d="M30,50 45,57"/>
      </g>
      <g transform="translate(150 60)">
        <rect class="arrayKeyItem selected" height="50" width="50" x="0" y="0"/>
        <text class="note" text-anchor="middle" x="25" y="28">Alexander</text>
        <path class="link" d="M30,50 45,57"/>
      </g>
      <g transform="translate(200 120)">
        <rect class="arrayKeyItem selected" height="50" width="50" x="0" y="0"/>
        <text class="note" text-anchor="middle" x="25" y="28">Robert</text>
        <path class="link" d="M30,50 45,57"/>
      </g>
      <g transform="translate(250 180)">
        <rect class="arrayKeyItem selected" height="50" width="50" x="0" y="0"/>
        <text class="note" text-anchor="middle" x="25" y="28">Jan</text>
      </g>
      <rect class="arrayKeyItem" height="50" width="50" x="200" y="0"/>
      <rect class="arrayKeyItem" height="50" width="50" x="300" y="0"/>
      <text class="bigcomment" text-anchor="start" x="0" y="150">complexity → O(N)</text>
    </g>
  </g>
</svg>
