<?xml version="1.0" encoding="utf-8" standalone="no"?>
<!DOCTYPE svg
  PUBLIC '-//W3C//DTD SVG 1.1//EN'
  'http://www.w3.org/Graphics/SVG/1.1/DTD/svg11.dtd'>
<?xml-stylesheet type="text/css" href="svg-stylesheet.css" ?>
<svg height="560" version="1.1" width="1100" xmlns="http://www.w3.org/2000/svg" xmlns:xlink="http://www.w3.org/1999/xlink">
  <defs>
    <style type="text/css"><![CDATA[

rect.arrayKeyItem, rect.arrayValueItem {
  fill:white;
  stroke:black;
  stroke-width:1;
  opacity:1;
}

rect.arrayKeyItem.selected {
    fill:#00B7EB;
}

rect.arrayValueItem.selected {
    fill:#6BF76B;
}

rect.focused {
  stroke-width:3;
}

.code, .codeX {
    font-size:16px;
    fill:#000000;
    font-family:PT Mono;
}

.note {
    font-size:11px;
    fill:#000000;
    font-family:PT Serif;
}

.comment {
    font-size:14px;
    fill:#000000;
    font-family:PT Serif;
}

.bigcomment {
    font-size:2.1em;
    fill:#000000;
    font-weight: bold;
    font-family:PT Serif;
}

.link {
  fill:none;
  stroke:black;
  stroke-width:1.2;
  marker-end:url(#TriangleOutL);
}

.code1, .code2, .code3, .code4 {
   opacity:0.8;
}

.code1 {
  fill:red;
}

.code2 {
  fill:green;
}

.code3 {
  fill:blue;
}

.code4 {
  fill:orange;
}

.header.code1 {
  /*fill:red;*/
  fill: #0F0;
}

.header.code2 {
  /*fill:green;*/
  fill: #0C0;
}

.header.code3 {
  /*fill:blue;*/
  fill: #0A0;
}

.header.code4 {
  /*fill:orange;*/
  fill: #080;
}


rect.unused, rect.used {
  stroke:black;
  stroke-width:1;
  opacity:1;
  fill:#ddd;
}

rect.log {
  stroke:none;
  stroke-width:0;
  opacity:0.5;
  fill:#ddf;
}

path.log {
  fill: none;
  stroke: #88F;
  stroke-width:2;
}

rect.t1 {
    fill:#30FB30;
}

rect.t2 {
    fill:#3030FB;
}

rect.t3 {
    fill:#FB3030;
}

/* */
.link {
  fill:none;
  stroke:black;
  stroke-width:1.2;
  marker-end:url(#TriangleOutL);
}

.arrayKeyItemBlack, .arrayKeyItemRed {
  fill:black;
  stroke:black;
  stroke-width:1;
  opacity:1;
}

rect.arrayKeyItemBlack.selected {
    fill:#000;
}

rect.arrayKeyItemRed.selected {
    fill:#C00;
}

rect.rbTree {
  opacity: 0.45;
  fill: #f57670;
}

rect.chain {
  opacity: 0.45;
  fill: #1fbec3;
}

text.w {
  fill:#FFFFFF;
}

    ]]></style>
  </defs>
  <marker id="TriangleOutL" orient="auto" refX="0.0" refY="0.0" style="overflow:visible">
    <path d="M 6,0.0 L -2,3.0 L -2,-3.0 L 6,0.0 z " style="fill-rule:evenodd;stroke:#000000;stroke-width:1.0pt;marker-start:none" transform="scale(0.6)"/>
  </marker>
  <g transform="translate(160 20) scale(2)">

    <rect class="chain" height="280" width="150" x="-80" y="-5"/>
    <rect class="rbTree" height="280" width="350" x="70" y="-5"/>

    <rect class="arrayKeyItem" height="50" width="50" x="-50" y="0"/>
    <rect class="arrayKeyItem" height="50" width="50" x="0" y="0"/>
    <rect class="arrayKeyItem" height="50" width="50" x="50" y="0"/>
    <rect class="arrayKeyItem" height="50" width="50" x="100" y="0"/>
    <rect class="arrayKeyItem" height="50" width="50" x="150" y="0"/>
    <g transform="translate(200 0)">
      <rect class="arrayKeyItemBlack selected" height="50" width="50" x="0" y="0"/>
      <!-- key4 -->
      <text class="note w" text-anchor="middle" x="25" y="28">usernbOF</text>
      <path class="link" d="M20,50 -35,66"/>
      <path class="link" d="M30,50 85,66"/>
      <g transform="translate(-80 70)">
        <rect class="arrayKeyItemRed selected" height="50" width="50" x="0" y="0"/>
        <!-- key2 -->
        <text class="note w" text-anchor="middle" x="25" y="28">usernanF</text>
        <path class="link" d="M0,50 -15,65"/>
        <path class="link" d="M50,50 65,65"/>
        <g transform="translate(-40 70)">
          <rect class="arrayKeyItemBlack selected" height="50" width="50" x="0" y="0"/>
          <!-- key1 -->
          <text class="note w" text-anchor="middle" x="25" y="28">username</text>
        </g>
        <g transform="translate(40 70)">
          <rect class="arrayKeyItemBlack selected" height="50" width="50" x="0" y="0"/>
          <!-- key3 -->
          <text class="note w" text-anchor="middle" x="25" y="28">usernbNe</text>
        </g>
      </g>
      <g transform="translate(80 70)">
        <rect class="arrayKeyItemRed selected" height="50" width="50" x="0" y="0"/>
        <!-- key6 -->
        <text class="note w" text-anchor="middle" x="25" y="28">useroBnF</text>
        <path class="link" d="M0,50 -15,65"/>
        <path class="link" d="M50,50 65,65"/>
        <g transform="translate(-40 70)">
          <rect class="arrayKeyItemBlack selected" height="50" width="50" x="0" y="0"/>
          <!-- key5 -->
          <text class="note w" text-anchor="middle" x="25" y="28">useroBme</text>
        </g>
        <g transform="translate(40 70)">
          <rect class="arrayKeyItemBlack selected" height="50" width="50" x="0" y="0"/>
          <!-- key7 -->
          <text class="note w" text-anchor="middle" x="25" y="28">useroCNe</text>
          <path class="link" d="M50,50 65,65"/>
          <g transform="translate(40 70)">
            <rect class="arrayKeyItemRed selected" height="50" width="50" x="0" y="0"/>
            <!-- key8 -->
            <text class="note w" text-anchor="middle" x="25" y="28">useroCOF</text>
          </g>
        </g>
      </g>
    </g>
    <rect class="arrayKeyItem" height="50" width="50" x="250" y="0"/>
    <g transform="translate(0 0)">
      <rect class="arrayKeyItem selected" height="50" width="50" x="0" y="0"/>
      <!-- keyA -->
      <text class="note" text-anchor="middle" x="25" y="28">ABCD</text>
      <path class="link" d="M25,50 0,65"/>
      <g transform="translate(-35 70)">
        <rect class="arrayKeyItem selected" height="50" width="50" x="0" y="0"/>
        <!-- keyB -->
        <text class="note" text-anchor="middle" x="25" y="28">AAbD</text>
        <path class="link" d="M25,50 0,65"/>
        <g transform="translate(-35 70)">
          <rect class="arrayKeyItem selected" height="50" width="50" x="0" y="0"/>
          <!-- keyC -->
          <text class="note" text-anchor="middle" x="25" y="28">ABBc</text>
        </g>
      </g>
    </g>
    <rect class="arrayKeyItem" height="50" width="50" x="300" y="0"/>

    <text class="bigcomment" text-anchor="end" x="50" y="250">*$Node</text>
    <text class="bigcomment" text-anchor="end" x="320" y="250">*$TreeNode</text>
  </g>
</svg>
