<?xml version="1.0" encoding="utf-8" standalone="no"?>
<!DOCTYPE svg
  PUBLIC '-//W3C//DTD SVG 1.1//EN'
  'http://www.w3.org/Graphics/SVG/1.1/DTD/svg11.dtd'>
<?xml-stylesheet type="text/css" href="../svg-stylesheet.css" ?>
<svg height="550" version="1.1" width="1000" xmlns="http://www.w3.org/2000/svg" xmlns:xlink="http://www.w3.org/1999/xlink">
  <defs>
    <style type="text/css"><![CDATA[
.link {
  fill:none;
  stroke:black;
  stroke-width:1.2;
  marker-end:url(#TriangleOutL);
}
    ]]></style>
  </defs>
  <marker id="TriangleOutL" orient="auto" refX="0.0" refY="0.0" style="overflow:visible">
    <path d="M 6,0.0 L -2,3.0 L -2,-3.0 L 6,0.0 z " style="fill-rule:evenodd;stroke:#000000;stroke-width:1.0pt;marker-start:none" transform="scale(0.6)"/>
  </marker>
  <g transform="translate(20 20) scale(2.25)">
    <g transform="translate(30 0)">
      <rect class="arrayKeyItem" height="50" width="50" x="50" y="0"/>
      <rect class="arrayKeyItem" height="50" width="50" x="100" y="0"/>
      <rect class="arrayKeyItem" height="50" width="50" x="150" y="0"/>
      <g transform="translate(0 0)">
        <rect class="arrayKeyItem selected" height="50" width="50" x="0" y="0"/>
        <text class="note" text-anchor="middle" x="25" y="28">Фёдор</text>
      </g>
      <rect class="arrayKeyItem" height="50" width="50" x="50" y="0"/>
      <rect class="arrayKeyItem" height="50" width="50" x="100" y="0"/>
      <g transform="translate(250 0)">
        <rect class="arrayKeyItem selected" height="50" width="50" x="0" y="0"/>
        <text class="note" text-anchor="middle" x="25" y="28">Пётр</text>
      </g>
      <g transform="translate(100 0)">
        <rect class="arrayKeyItem selected" height="50" width="50" x="0" y="0"/>
        <text class="note" text-anchor="middle" x="25" y="28">Алексей</text>
        <path class="link" d="M30,50 45,57"/>
      </g>
      <g transform="translate(150 60)">
        <rect class="arrayKeyItem selected" height="50" width="50" x="0" y="0"/>
        <text class="note" text-anchor="middle" x="25" y="28">Alexander</text>
        <path class="link" d="M30,50 45,57"/>
      </g>
      <g transform="translate(200 120)">
        <rect class="arrayKeyItem selected" height="50" width="50" x="0" y="0"/>
        <text class="note" text-anchor="middle" x="25" y="28">Alex</text>
        <path class="link" d="M30,50 45,57"/>
      </g>
      <g transform="translate(250 180)">
        <rect class="arrayKeyItem selected" height="50" width="50" x="0" y="0"/>
        <text class="note" text-anchor="middle" x="25" y="28">Jan</text>
      </g>
      <rect class="arrayKeyItem" height="50" width="50" x="200" y="0"/>
      <rect class="arrayKeyItem" height="50" width="50" x="300" y="0"/>
      <text class="bigcomment" text-anchor="start" x="0" y="150">сложность → O(N)</text>
    </g>
  </g>
</svg>
