<?xml version="1.0" encoding="utf-8" standalone="no"?>
<!DOCTYPE svg
  PUBLIC '-//W3C//DTD SVG 1.1//EN'
  'http://www.w3.org/Graphics/SVG/1.1/DTD/svg11.dtd'>
<?xml-stylesheet type="text/css" href="../svg-stylesheet.css" ?>
<svg height="350" version="1.1" width="1000" xmlns="http://www.w3.org/2000/svg" xmlns:xlink="http://www.w3.org/1999/xlink">
  <g transform="translate(20 20) scale(3)">
    <g transform="translate(10 30)">
      <text class="comment" x="0" y="-10">class</text>
      <text class="comment" x="0" y="25">address</text>
      <text class="comment" x="0" y="60">hashCode</text>
      <text class="comment" x="0" y="95">size</text>
      <text class="comment" x="0" y="130">dump</text>
    </g>
    <g transform="translate(90 30)">
      <text class="code" x="0" y="-10">java.lang.Object</text>
      <text class="code" x="0" y="25">0x 07</text>
      <g transform="translate(29 -35)">
        <g transform="translate(24 40)">
          <rect class="header code1" height="30" width="29" x="0" y="0"/>
          <text class="codeX" text-anchor="middle" x="14" y="20">6B</text>
        </g>
        <g transform="translate(53 40)">
          <rect class="header code2" height="30" width="29" x="0" y="0"/>
          <text class="codeX" text-anchor="middle" x="14" y="20">A3</text>
        </g>
        <g transform="translate(82 40)">
          <rect class="header code3" height="30" width="29" x="0" y="0"/>
          <text class="codeX" text-anchor="middle" x="14" y="20">6D</text>
        </g>
        <g transform="translate(111 40)">
          <rect class="header code4" height="30" width="29" x="0" y="0"/>
          <text class="codeX" text-anchor="middle" x="14" y="20">B8</text>
        </g>
      </g>

      <g>
        <text class="code" x="0" y="60">0x</text>
        <g transform="translate(24 40)">
          <rect class="header code1" height="30" width="29" x="0" y="0"/>
          <text class="codeX" text-anchor="middle" x="14" y="20">6B</text>
        </g>
        <g transform="translate(53 40)">
          <rect class="header code2" height="30" width="29" x="0" y="0"/>
          <text class="codeX" text-anchor="middle" x="14" y="20">A3</text>
        </g>
        <g transform="translate(82 40)">
          <rect class="header code3" height="30" width="29" x="0" y="0"/>
          <text class="codeX" text-anchor="middle" x="14" y="20">6D</text>
        </g>
        <g transform="translate(111 40)">
          <rect class="header code4" height="30" width="29" x="0" y="0"/>
          <text class="codeX" text-anchor="middle" x="14" y="20">B8</text>
        </g>
      </g>
      <text class="code" x="0" y="95">16</text>
      <g transform="translate(0 35)">
        <g transform="translate(0 35)">
          <g transform="translate(24 40)">
            <rect class="header code4" height="30" width="29" x="0" y="0"/>
            <text class="codeX" text-anchor="middle" x="14" y="20">B8</text>
          </g>
          <g transform="translate(53 40)">
            <rect class="header code3" height="30" width="29" x="0" y="0"/>
            <text class="codeX" text-anchor="middle" x="14" y="20">6D</text>
          </g>
          <g transform="translate(82 40)">
            <rect class="header code2" height="30" width="29" x="0" y="0"/>
            <text class="codeX" text-anchor="middle" x="14" y="20">A3</text>
          </g>
          <g transform="translate(111 40)">
            <rect class="header code1" height="30" width="29" x="0" y="0"/>
            <text class="codeX" text-anchor="middle" x="14" y="20">6B</text>
          </g>
        </g>
        <text class="code" x="0" y="95">01</text>
        <text class="code" x="146" y="95">00 00 00</text>
        <text class="code" x="0" y="130">E5 01 00 F8 00 00 00 00</text>
      </g>
    </g>
  </g>
</svg>
