<?xml version="1.0" encoding="utf-8" standalone="no"?>
<!DOCTYPE svg
  PUBLIC '-//W3C//DTD SVG 1.1//EN'
  'http://www.w3.org/Graphics/SVG/1.1/DTD/svg11.dtd'>
<?xml-stylesheet type="text/css" href="svg-stylesheet.css" ?>
<svg height="480" version="1.1" width="1000" xmlns="http://www.w3.org/2000/svg" xmlns:xlink="http://www.w3.org/1999/xlink">
   <defs>
    <style type="text/css"><![CDATA[

rect.arrayKeyItem, rect.arrayValueItem {
  fill:white;
  stroke:black;
  stroke-width:1;
  opacity:1;
}

rect.arrayKeyItem.selected {
    fill:#00B7EB;
}

rect.arrayValueItem.selected {
    fill:#6BF76B;
}

rect.focused {
  stroke-width:3;
}

.code, .codeX {
    font-size:16px;
    fill:#000000;
    font-family:PT Mono;
}

.note {
    font-size:10px;
    fill:#000000;
    font-family:PT Serif;
}

.comment {
    font-size:14px;
    fill:#000000;
    font-family:PT Serif;
}

.bigcomment {
    font-size:18px;
    fill:#000000;
    font-family:PT Serif;
}

.link {
  fill:none;
  stroke:black;
  stroke-width:1.2;
  marker-end:url(#TriangleOutL);
}

.code1, .code2, .code3, .code4 {
   opacity:0.8;
}

.code1 {
  fill:red;
}

.code2 {
  fill:green;
}

.code3 {
  fill:blue;
}

.code4 {
  fill:orange;
}

.header.code1 {
  /*fill:red;*/
  fill: #0F0;
}

.header.code2 {
  /*fill:green;*/
  fill: #0C0;
}

.header.code3 {
  /*fill:blue;*/
  fill: #0A0;
}

.header.code4 {
  /*fill:orange;*/
  fill: #080;
}


rect.unused, rect.used {
  stroke:black;
  stroke-width:1;
  opacity:1;
  fill:#ddd;
}

rect.log {
  stroke:none;
  stroke-width:0;
  opacity:0.5;
  fill:#ddf;
}

path.log {
  fill: none;
  stroke: #88F;
  stroke-width:2;
}

rect.t1 {
    fill:#30FB30;
}

rect.t2 {
    fill:#3030FB;
}

rect.t3 {
    fill:#FB3030;
}

/* */
 ]]></style>
  </defs>
  <g transform="translate(20 20) scale(3)">
    <g transform="translate(10 30)">
      <text class="comment" x="0" y="-10">class</text>
      <text class="comment" x="0" y="25">address</text>
      <text class="comment" x="0" y="60">hashCode</text>
      <text class="comment" x="0" y="95">size</text>
      <!--text class="comment" x="0" y="130">dump</text-->
    </g>
    <g transform="translate(90 30)">
      <text class="code" x="0" y="-10">java.lang.Object</text>
      <text class="code" x="0" y="25">0x 07</text>
      <g transform="translate(29 -35)">
        <g transform="translate(24 40)">
          <rect class="header code1" height="30" width="29" x="0" y="0"/>
          <text class="codeX" text-anchor="middle" x="14" y="20">6B</text>
        </g>
        <g transform="translate(53 40)">
          <rect class="header code2" height="30" width="29" x="0" y="0"/>
          <text class="codeX" text-anchor="middle" x="14" y="20">A3</text>
        </g>
        <g transform="translate(82 40)">
          <rect class="header code3" height="30" width="29" x="0" y="0"/>
          <text class="codeX" text-anchor="middle" x="14" y="20">6D</text>
        </g>
        <g transform="translate(111 40)">
          <rect class="header code4" height="30" width="29" x="0" y="0"/>
          <text class="codeX" text-anchor="middle" x="14" y="20">B8</text>
        </g>
      </g>

      <g>
        <text class="code" x="0" y="60">0x</text>
        <g transform="translate(24 40)">
          <rect class="header code1" height="30" width="29" x="0" y="0"/>
          <text class="codeX" text-anchor="middle" x="14" y="20">6B</text>
        </g>
        <g transform="translate(53 40)">
          <rect class="header code2" height="30" width="29" x="0" y="0"/>
          <text class="codeX" text-anchor="middle" x="14" y="20">A3</text>
        </g>
        <g transform="translate(82 40)">
          <rect class="header code3" height="30" width="29" x="0" y="0"/>
          <text class="codeX" text-anchor="middle" x="14" y="20">6D</text>
        </g>
        <g transform="translate(111 40)">
          <rect class="header code4" height="30" width="29" x="0" y="0"/>
          <text class="codeX" text-anchor="middle" x="14" y="20">B8</text>
        </g>
      </g>
      <text class="code" x="0" y="95">16</text>
      <!--g transform="translate(0 35)">
        <g transform="translate(0 35)">
          <g transform="translate(24 40)">
            <rect class="header code4" height="30" width="29" x="0" y="0"/>
            <text class="codeX" text-anchor="middle" x="14" y="20">B8</text>
          </g>
          <g transform="translate(53 40)">
            <rect class="header code3" height="30" width="29" x="0" y="0"/>
            <text class="codeX" text-anchor="middle" x="14" y="20">6D</text>
          </g>
          <g transform="translate(82 40)">
            <rect class="header code2" height="30" width="29" x="0" y="0"/>
            <text class="codeX" text-anchor="middle" x="14" y="20">A3</text>
          </g>
          <g transform="translate(111 40)">
            <rect class="header code1" height="30" width="29" x="0" y="0"/>
            <text class="codeX" text-anchor="middle" x="14" y="20">6B</text>
          </g>
        </g>
        <text class="code" x="0" y="95">01</text>
        <text class="code" x="146" y="95">00 00 00</text>
        <text class="code" x="0" y="130">E5 01 00 F8 00 00 00 00</text>
      </g-->
    </g>
  </g>
</svg>
