<?xml version="1.0" encoding="utf-8" standalone="no"?>
<!DOCTYPE svg
  PUBLIC '-//W3C//DTD SVG 1.1//EN'
  'http://www.w3.org/Graphics/SVG/1.1/DTD/svg11.dtd'>
<?xml-stylesheet type="text/css" href="../svg-stylesheet.css" ?>
<svg height="280" version="1.1" width="1000" xmlns="http://www.w3.org/2000/svg" xmlns:xlink="http://www.w3.org/1999/xlink">
  <defs>
    <style type="text/css"><![CDATA[
.link {
  fill:none;
  stroke:black;
  stroke-width:1.2;
  marker-end:url(#TriangleOutL);
}
    ]]></style>
  </defs>
  <marker id="TriangleOutL" orient="auto" refX="0.0" refY="0.0" style="overflow:visible">
    <path d="M 5.77,0.0 L -2.88,5.0 L -2.88,-5.0 L 5.77,0.0 z " id="path4051" style="fill-rule:evenodd;stroke:#000000;stroke-width:1.0pt;marker-start:none" transform="scale(0.8)"/>
  </marker>
  <g transform="translate(20 20) scale(2)">
    <g transform="translate(0 0)">
      <g transform="translate(0 70)">
        <rect class="arrayValueItem selected" height="50" width="50" x="0" y="0"/>
        <rect class="arrayValueItem" height="50" width="50" x="50" y="0"/>
        <rect class="arrayValueItem" height="50" width="50" x="100" y="0"/>
        <rect class="arrayValueItem" height="50" width="50" x="150" y="0"/>
        <rect class="arrayValueItem" height="50" width="50" x="200" y="0"/>
        <rect class="arrayValueItem" height="50" width="50" x="250" y="0"/>
        <rect class="arrayValueItem" height="50" width="50" x="300" y="0"/>
      </g>
    </g>

    <g transform="translate(100 0)">
      <rect class="arrayKeyItem selected" height="50" width="50" x="0" y="0"/>
      <text class="note" text-anchor="middle" x="25" y="28">23derevo</text>
      <path class="link" d="M25,50 25,63"/>
      <g transform="translate(0 70)">
        <rect class="arrayValueItem selected" height="50" width="50" x="0" y="0"/>
        <text class="note" text-anchor="middle" x="25" y="28">+7916..</text>
      </g>
    </g>
    <rect class="arrayKeyItem" height="50" width="50" x="150" y="0"/>
    <rect class="arrayKeyItem" height="50" width="50" x="200" y="0"/>
    <rect class="arrayKeyItem" height="50" width="50" x="250" y="0"/>
    <rect class="arrayKeyItem" height="50" width="50" x="300" y="0"/>
    <g transform="translate(0 0)">
      <rect class="arrayKeyItem selected" height="50" width="50" x="0" y="0"/>
      <text class="note" text-anchor="middle" x="25" y="28">jbaruch</text>
      <path class="link" d="M25,50 25,63"/>
      <g transform="translate(0 70)">
        <text class="note" text-anchor="middle" x="25" y="28">+1..</text>
      </g>
    </g>
    <g transform="translate(50 0)">
      <rect class="arrayKeyItem selected focused" height="50" width="50" x="0" y="0"/>
      <text class="note" text-anchor="middle" x="25" y="28">shipilёv</text>
      <path class="link" d="M25,50 25,63"/>
      <g transform="translate(0 70)">
        <rect class="arrayValueItem selected" height="50" width="50" x="0" y="0"/>
        <text class="note" text-anchor="middle" x="25" y="28">+420..</text>
      </g>
    </g>
  </g>
</svg>
