<?xml version="1.0" encoding="utf-8" standalone="no"?>
<!DOCTYPE svg
  PUBLIC '-//W3C//DTD SVG 1.1//EN'
  'http://www.w3.org/Graphics/SVG/1.1/DTD/svg11.dtd'>
<?xml-stylesheet type="text/css" href="svg-stylesheet.css" ?>
<svg height="550" version="1.1" width="1000" xmlns="http://www.w3.org/2000/svg" xmlns:xlink="http://www.w3.org/1999/xlink">
  <defs>
    <style type="text/css"><![CDATA[

rect.arrayKeyItem, rect.arrayValueItem {
  fill:white;
  stroke:black;
  stroke-width:1;
  opacity:1;
}

rect.arrayKeyItem.selected {
    fill:#00B7EB;
}

rect.arrayValueItem.selected {
    fill:#6BF76B;
}

rect.focused {
  stroke-width:3;
}

.code, .codeX {
    font-size:16px;
    fill:#000000;
    font-family:PT Mono;
}

.note {
    font-size:10px;
    fill:#000000;
    font-family:PT Serif;
}

.comment {
    font-size:14px;
    fill:#000000;
    font-family:PT Serif;
}

.bigcomment {
    font-size:18px;
    fill:#000000;
    font-family:PT Serif;
}

.link {
  fill:none;
  stroke:black;
  stroke-width:1.2;
  marker-end:url(#TriangleOutL);
}

.code1, .code2, .code3, .code4 {
   opacity:0.8;
}

.code1 {
  fill:red;
}

.code2 {
  fill:green;
}

.code3 {
  fill:blue;
}

.code4 {
  fill:orange;
}

.header.code1 {
  /*fill:red;*/
  fill: #0F0;
}

.header.code2 {
  /*fill:green;*/
  fill: #0C0;
}

.header.code3 {
  /*fill:blue;*/
  fill: #0A0;
}

.header.code4 {
  /*fill:orange;*/
  fill: #080;
}


rect.unused, rect.used {
  stroke:black;
  stroke-width:1;
  opacity:1;
  fill:#ddd;
}

rect.log {
  stroke:none;
  stroke-width:0;
  opacity:0.5;
  fill:#ddf;
}

path.log {
  fill: none;
  stroke: #88F;
  stroke-width:2;
}

rect.t1 {
    fill:#30FB30;
}

rect.t2 {
    fill:#3030FB;
}

rect.t3 {
    fill:#FB3030;
}

/* */

.link {
  fill:none;
  stroke:black;
  stroke-width:1.2;
  marker-end:url(#TriangleOutL);
}

.code{
  font-size:14px;
    fill:#000000;
    font-family:PT Mono;
}

.code1, .code2, .code3, .code4 {
  opacity:0.5;
}

.code1 {
  fill:red;
  stop-color: red;
}

.code2 {
  fill:green;
  stop-color: green;
}

.code12 {
  fill: url(#Gradient1);
  opacity:0.5;
}

.code31, .code41 {
  opacity:1;
  stroke:black;
  stroke-width:1.2;
}

.r {
  fill: none;
  stroke:black;
  stroke-width:1.2;
}

.line {
  fill:none;
  stroke:black;
  stroke-width:1.2;
}

.link {
  fill:none;
  stroke:black;
  stroke-width:1.2;
  marker-end:url(#TriangleOutL);
}

.dim {
  fill:none;
  stroke:black;
  stroke-width:1.2;
  marker-start:url(#TriangleInL);
  marker-end:url(#TriangleOutL);
}

path.log {
  fill: none;
  stroke: #88F;
  stroke-width:2;
}

    ]]></style>
  </defs>
  <linearGradient id="Gradient1">
    <stop class="code1" offset="0%"/>
    <stop class="code2" offset="100%"/>
  </linearGradient>
  <marker id="TriangleOutL" orient="auto" refX="0.0" refY="0.0" style="overflow:visible">
    <path d="M 5.77,0.0 L -2.88,5.0 L -2.88,-5.0 L 5.77,0.0 z " id="path4051" style="fill-rule:evenodd;stroke:#000000;stroke-width:1.0pt;marker-start:none" transform="scale(0.6)"/>
  </marker>
  <marker id="TriangleInL" orient="auto" refX="0.0" refY="0.0" style="overflow:visible">
    <g transform="rotate(180)">
      <path d="M 5.77,0.0 L -2.88,5.0 L -2.88,-5.0 L 5.77,0.0 z " id="path4051" style="fill-rule:evenodd;stroke:#000000;stroke-width:1.0pt;marker-start:none" transform="scale(0.6)"/>
    </g>
  </marker>
  <g transform="translate(0 20) scale(2)">
    <g transform="translate(0 90)">
      <rect class="unused" height="20" width="60" x="-10" y="15"/>
      <rect class="unused" height="20" width="220" x="385" y="15"/>
      <path class="line" d="M50,10 50,70"/>
      <rect class="code1" height="20" width="20" x="50" y="15"/>
      <rect class="r" height="20" width="335" x="50" y="15"/>
      <rect class="code12" height="20" width="295" x="70" y="15"/>
      <rect class="code2" height="20" width="20" x="365" y="15"/>
      <g transform="translate(60 0)">
        <rect class="code3 code31" height="30" width="20" x="90" y="10"/>
        <text class="bigcomment" text-anchor="middle" x="100" y="0">Obj</text>
      </g>
      <path class="link" d="M170,10 C 230,-20 290,-20 395,8"/>
      <text class="note" text-anchor="middle" x="265" y="-3">GC</text>

      <rect class="code4 code41" height="30" width="20" x="400" y="10"/>
      <text class="bigcomment" text-anchor="middle" x="410" y="0">Obj</text>
      <path class="line" d="M385,10 385,70"/>
      <path class="dim" d="M55,60 380,60"/>
      <text class="bigcomment" text-anchor="middle" x="200" y="55">eden</text>
    </g>
    <g transform="translate(-5 120) scale(0.75)">
      <g transform="translate(5 -150)">
        <rect class="log" height="105" width="1250" x="0" y="-25"/>
        <path class="log" d="M 5,-22 l5,5 l-5,5 l5,5 l-5,5 l5,5 l-5,5 l5,5 l-5,5 l5,5 l-5,5 l5,5 l-5,5 l5,5 l-5,5 l5,5 l-5,5 l5,5 l-5,5 l5,5 l-5,5"/>
        <text class="code" x="70" y="0">eden space 65536K, 2% used</text>
        <rect class="code1" height="20" width="152" x="78" y="15"/>
        <rect class="code2" height="20" width="152" x="397" y="15"/>
        <text class="code" x="70" y="30">[0x000000012a700000,0x000000012a8db400,0x000000012e700000)</text>
        <rect class="code3" height="20" width="100" x="235" y="45"/>
        <rect class="code4" height="20" width="100" x="363" y="45"/>
        <text class="code" x="70" y="60">Объект перемещён: с 0x12A8109F0 -&gt; 0x12E7200F8</text>
      </g>
      <g>
        <rect class="code1" height="20" width="100" x="69" y="85"/>
        <text class="code" text-anchor="start" x="70" y="100">0x12A700000</text>
        <text class="code" text-anchor="start" x="70" y="120">начало Eden</text>
      </g>
      <g transform="translate(-20 0)">
        <rect class="code3" height="20" width="100" x="224" y="85"/>
        <text class="code" text-anchor="end" x="320" y="100">0x12A8109F0</text>
        <text class="code" text-anchor="middle" x="275" y="120">старый адрес</text>
      </g>
      <g transform="translate(200 0)">
        <rect class="code2" height="20" width="100" x="223" y="85"/>
        <text class="code" text-anchor="end" x="320" y="100">0x12E700000</text>
        <text class="code" text-anchor="end" x="320" y="120">конец Eden</text>
      </g>
      <g transform="translate(330 0)">
        <rect class="code4" height="20" width="100" x="224" y="85"/>
        <text class="code" text-anchor="end" x="320" y="100">0x12E7200F8</text>
        <text class="code" text-anchor="end" x="320" y="120">новый адрес</text>
      </g>
    </g>
  </g>
</svg>
