<?xml version="1.0" encoding="utf-8" standalone="no"?>
<!DOCTYPE svg
  PUBLIC '-//W3C//DTD SVG 1.1//EN'
  'http://www.w3.org/Graphics/SVG/1.1/DTD/svg11.dtd'>
<?xml-stylesheet type="text/css" href="../svg-stylesheet.css" ?>
<svg height="400" version="1.1" width="1000" xmlns="http://www.w3.org/2000/svg" xmlns:xlink="http://www.w3.org/1999/xlink">
  <defs>
    <style type="text/css"><![CDATA[
.line {
  fill:none;
  stroke:black;
  stroke-width:1.2;
}

.dim {
  fill:none;
  stroke:black;
  stroke-width:1.2;
  marker-start:url(#TriangleInL);
  marker-end:url(#TriangleOutL);
}
    ]]></style>
  </defs>
  <marker id="TriangleOutL" orient="auto" refX="0.0" refY="0.0" style="overflow:visible">
    <path d="M 5.77,0.0 L -2.88,5.0 L -2.88,-5.0 L 5.77,0.0 z " id="path4051" style="fill-rule:evenodd;stroke:#000000;stroke-width:1.0pt;marker-start:none" transform="scale(0.6)"/>
  </marker>
  <marker id="TriangleInL" orient="auto" refX="0.0" refY="0.0" style="overflow:visible">
    <g transform="rotate(180)">
      <path d="M 5.77,0.0 L -2.88,5.0 L -2.88,-5.0 L 5.77,0.0 z " id="path4051" style="fill-rule:evenodd;stroke:#000000;stroke-width:1.0pt;marker-start:none" transform="scale(0.6)"/>
    </g>
  </marker>
  <g transform="translate(20 50) scale(2)">
    <rect class="unused" height="100" width="800" x="-20" y="0"/>
    <text class="bigcomment" text-anchor="middle" x="250" y="145">Eden</text>
    <path class="dim" d="M-5,150 485,150"/>
    <g transform="translate(0 0)">
      <rect class="unused t1" height="100" width="100" x="0" y="0"/>
      <path class="line" d="M0,0 0,120"/>
      <path class="line" d="M120,0 120,120"/>
      <path class="dim" d="M5,120 115,120"/>
      <text class="note" text-anchor="middle" x="60" y="114">Thread1 TLAB</text>
    </g>
    <g transform="translate(120 0)">
      <rect class="unused t2" height="100" width="50" x="0" y="0"/>
      <path class="line" d="M0,0 0,120"/>
      <path class="line" d="M120,0 120,120"/>
      <path class="dim" d="M5,120 115,120"/>
      <text class="note" text-anchor="middle" x="60" y="114">Thread2 TLAB</text>
    </g>
  </g>
</svg>
